<svg xmlns="http://www.w3.org/2000/svg" version="1.1" xmlns:xlink="http://www.w3.org/1999/xlink" xmlns:svgjs="http://svgjs.com/svgjs" width="1440" height="560" preserveAspectRatio="none" viewBox="0 0 1440 560"><g mask="url(&quot;#SvgjsMask1052&quot;)" fill="none"><rect width="1440" height="560" x="0" y="0" fill="rgba(63, 81, 133, 1)"></rect><path d="M354.3953820103014 231.9407864799486L267.1984643461109 173.1257228730443 295.5803184033971 319.1377041441391z" fill="rgba(225, 229, 233, 0.82)" class="triangle-float3"></path><path d="M382.7386219126813 498.4792606172289L443.06753906713385 581.5148914702205 465.774252765673 438.15034346277633z" fill="rgba(225, 229, 233, 0.82)" class="triangle-float2"></path><path d="M1409.599,181.362C1429.15,179.891,1441.351,161.778,1449.931,144.149C1457.268,129.073,1457.859,112.31,1450.548,97.221C1442.022,79.625,1429.145,61.434,1409.599,60.91C1389.472,60.37,1374.776,77.51,1364.661,94.919C1354.483,112.436,1347.834,133.153,1357.178,151.128C1367.15,170.311,1388.04,182.984,1409.599,181.362" fill="rgba(225, 229, 233, 0.82)" class="triangle-float2"></path><path d="M-20.146905496591387-77.46300033011018L-67.13724475974122 51.641895727905975 61.96765129827493 98.63223499105582 108.95799056142477-30.47266106696034z" fill="rgba(225, 229, 233, 0.82)" class="triangle-float3"></path><path d="M216.73034759738601 380.9120033945637L387.67708437154926 297.7372861403902 251.54731783923413 202.41819743973534z" fill="rgba(225, 229, 233, 0.82)" class="triangle-float2"></path><path d="M977.188,454.981C997.115,455.441,1019.087,454.334,1030.281,437.842C1042.611,419.676,1042.22,394.975,1030.531,376.391C1019.484,358.828,997.882,351.933,977.188,353.431C958.991,354.748,945.088,367.59,935.732,383.254C926.063,399.441,918.741,419.16,928.176,435.485C937.606,451.801,958.348,454.546,977.188,454.981" fill="rgba(225, 229, 233, 0.82)" class="triangle-float2"></path><path d="M691.221,239.334C728.883,239.657,770.278,236.757,790.998,205.306C813.38,171.332,811.495,125.112,788.642,91.453C767.993,61.041,727.957,57.021,691.221,58.35C657.419,59.573,624.054,69.945,605.29,98.087C584.262,129.625,574.662,171.237,594.363,203.62C613.532,235.128,654.341,239.018,691.221,239.334" fill="rgba(225, 229, 233, 0.82)" class="triangle-float1"></path><path d="M1037.216,512.342C1077.007,512.247,1117.815,495.347,1135.318,459.612C1151.421,426.735,1129.986,391.682,1111.904,359.851C1093.482,327.422,1074.429,289.408,1037.216,286.918C997.069,284.232,962.905,313.608,942.947,348.547C923.165,383.177,918.407,425.515,938.301,460.081C958.238,494.722,997.248,512.437,1037.216,512.342" fill="rgba(225, 229, 233, 0.82)" class="triangle-float1"></path><path d="M909.4042236941676 134.0064423167807L816.4750679047875 66.35405181047712 804.2294865794245 166.08630833617008z" fill="rgba(225, 229, 233, 0.82)" class="triangle-float1"></path><path d="M126.245,505.894C151.824,505.859,181.663,507.601,194.947,485.742C208.512,463.421,196.029,435.932,182.248,413.743C169.425,393.097,150.546,374.731,126.245,375.122C102.454,375.504,85.857,395.299,73.276,415.495C59.63,437.401,44.172,463.66,57.22,485.928C70.198,508.077,100.574,505.929,126.245,505.894" fill="rgba(225, 229, 233, 0.82)" class="triangle-float1"></path><path d="M934.831806108177 202.82485340268005L836.0259515392737 238.7872434369961 939.3724638751994 369.014830273193z" fill="rgba(225, 229, 233, 0.82)" class="triangle-float3"></path></g><defs><mask id="SvgjsMask1052"><rect width="1440" height="560" fill="#ffffff"></rect></mask></defs></svg>